<?xml version="1.0" encoding="UTF-8"?>
<svg viewBox="0 0 484.7113 245.34927" xmlns="http://www.w3.org/2000/svg" xmlns:xlink="http://www.w3.org/1999/xlink">
 <defs>
  <linearGradient id="a">
   <stop stop-color="#b8b8b8" offset="0"/>
   <stop stop-color="#e3e3e3" offset=".5"/>
   <stop stop-color="#b9b9b9" offset="1"/>
  </linearGradient>
  <linearGradient id="e" x1="125.89" x2="569.35" y1="286.38" y2="130.07" gradientUnits="userSpaceOnUse">
   <stop stop-color="#867850" offset="0"/>
   <stop stop-color="#a08872" offset=".35474"/>
   <stop stop-color="#867850" offset="1"/>
  </linearGradient>
  <linearGradient id="d" x1="412.44" x2="411.64" y1="330.39" y2="335.09" gradientUnits="userSpaceOnUse" xlink:href="#a"/>
  <linearGradient id="c" x1="412.44" x2="411.64" y1="330.39" y2="335.09" gradientTransform="matrix(.90747 -.42013 .42013 .90747 -96.493 204.08)" gradientUnits="userSpaceOnUse" xlink:href="#a"/>
  <linearGradient id="b" x1="412.44" x2="411.64" y1="330.39" y2="335.09" gradientTransform="matrix(-.96884 -.24771 .24771 -.96884 748.05 756.69)" gradientUnits="userSpaceOnUse" xlink:href="#a"/>
 </defs>
 <g transform="translate(-129.82 -97.676)" stroke-linejoin="round">
  <path d="m135.56 97.776h473.25a3.828 3.828 0 0 1 3.828 3.828v236.86a3.828 3.828 0 0 1 -3.828 3.828h-473.25a3.828 3.828 0 0 1 -3.828 -3.828v-236.86a3.828 3.828 0 0 1 3.828 -3.828" fill="url(#e)" stroke="#777" stroke-width=".2"/>
  <path d="m149.75 109.51h444.87a3.828 3.828 0 0 1 3.828 3.828v205.28a3.828 3.828 0 0 1 -3.828 3.828h-444.87a3.828 3.828 0 0 1 -3.828 -3.828v-205.28a3.828 3.828 0 0 1 3.828 -3.828" fill="#444" stroke="#777" stroke-width=".2"/>
  <path d="m397.66 328.23 30.171 3.838-0.79998 5.4618-30.018-4.881 0.64721-4.4188z" fill="url(#d)" stroke="#858585" stroke-width=".1"/>
  <path d="m402.27 334.87 28.991-9.1927 1.5687 5.2925-29.291 8.1821-1.2691-4.2818z" fill="url(#c)" stroke="#858585" stroke-width=".1"/>
  <path d="m444.09 340.19-28.28-11.192 2.128-5.0934 27.873 12.165-1.7216 4.1208z" fill="url(#b)" stroke="#858585" stroke-width=".1"/>
  <path transform="rotate(2.4312)" d="m267.4 314.14h37.648v11.905h-37.648z" fill="#493a3d" stroke="#858585" stroke-width=".1"/>
  <path d="m129.92 335.71h484.51v7.218h-484.51z" fill="#60553f" stroke="#777" stroke-width=".2"/>
 </g>
</svg>
