<?xml version="1.0" standalone="no"?><!DOCTYPE svg PUBLIC "-//W3C//DTD SVG 1.1//EN" "http://www.w3.org/Graphics/SVG/1.1/DTD/svg11.dtd"><svg t="1682492937034" class="icon" viewBox="0 0 1024 1024" version="1.1" xmlns="http://www.w3.org/2000/svg" p-id="29569" xmlns:xlink="http://www.w3.org/1999/xlink" width="200" height="200"><path d="M650.667 58.667A122.667 122.667 0 0 1 773.248 176.64l0.085 4.693v4.054a186.752 186.752 0 0 1 128 177.28v426.666A186.667 186.667 0 0 1 714.667 976H309.333a186.667 186.667 0 0 1-186.666-186.667V176A122.88 122.88 0 0 1 240.64 58.752l4.693-0.085h405.334z m64 192H197.333v538.666c0 61.867 50.134 112 112 112h405.334c61.866 0 112-50.133 112-112V362.667c0-61.867-50.134-112-112-112z m-64-117.334H245.333A48 48 0 0 0 197.632 176h500.736a48 48 0 0 0-44.416-42.56l-3.285-0.107z" p-id="29570" fill="#66CDAA"></path><path d="M716.715 522.133a32 32 0 0 1-42.966 47.318l-2.282-2.07-150.848-150.826a32 32 0 0 1 42.965-47.36l2.283 2.09 150.848 150.827z" p-id="29571" fill="#66CDAA"></path><path d="M716.715 371.285a32 32 0 0 1 2.069 42.966l-2.07 2.282-150.826 150.848a32 32 0 0 1-47.36-42.965l2.09-2.283 150.827-150.848a32 32 0 0 1 45.27 0z" p-id="29572" fill="#66CDAA"></path></svg>