<?xml version="1.0" standalone="no"?><!DOCTYPE svg PUBLIC "-//W3C//DTD SVG 1.1//EN" "http://www.w3.org/Graphics/SVG/1.1/DTD/svg11.dtd"><svg height="700" legacy-metrics="false" node-id="1" sillyvg="true" template-height="700" template-width="600" version="1.1" viewBox="0 0 600 700" width="600" xmlns="http://www.w3.org/2000/svg" xmlns:xlink="http://www.w3.org/1999/xlink"><defs node-id="289"><clipPath id="SVGID_1_" node-id="10"><path d="M -415.30 -396.90 C -416.00 -396.60 -417.20 -397.20 -419.10 -398.80 C -421.30 -398.60 -422.60 -398.80 -422.90 -399.50 C -423.20 -400.20 -422.50 -401.30 -420.90 -402.90 C -421.30 -404.90 -421.10 -406.00 -420.50 -406.40 C -419.80 -406.80 -418.60 -406.30 -417.00 -405.00 C -414.70 -405.60 -413.40 -405.50 -413.10 -404.70 C -412.80 -403.90 -413.40 -402.70 -414.90 -401.10 C -414.50 -398.60 -414.60 -397.20 -415.30 -396.90 Z" fill="#000000" fill-rule="nonzero" node-id="292" stroke="none" target-height="9.675659" target-width="9.8654785" target-x="-422.92386" target-y="-406.5227"></path></clipPath><clipPath id="SVGID_5_" node-id="23"><path d="M -436.70 -396.20 C -437.40 -395.90 -438.60 -396.50 -440.50 -398.10 C -442.70 -397.90 -444.00 -398.10 -444.30 -398.80 C -444.60 -399.50 -443.90 -400.60 -442.30 -402.20 C -442.70 -404.20 -442.50 -405.30 -441.90 -405.70 C -441.20 -406.10 -440.00 -405.60 -438.40 -404.30 C -436.10 -404.90 -434.80 -404.80 -434.50 -404.00 C -434.20 -403.20 -434.80 -402.00 -436.30 -400.40 C -435.90 -397.90 -436.10 -396.50 -436.70 -396.20 Z" fill="#000000" fill-rule="nonzero" node-id="296" stroke="none" target-height="9.675751" target-width="9.865509" target-x="-444.32385" target-y="-405.82275"></path></clipPath><clipPath id="SVGID_9_" node-id="35"><path d="M -461.00 -388.20 C -461.70 -387.90 -462.90 -388.50 -464.80 -390.10 C -467.00 -389.90 -468.30 -390.10 -468.60 -390.80 C -468.90 -391.50 -468.20 -392.60 -466.60 -394.20 C -467.00 -396.20 -466.80 -397.30 -466.20 -397.70 C -465.50 -398.10 -464.30 -397.60 -462.70 -396.30 C -460.40 -396.90 -459.10 -396.80 -458.80 -396.00 C -458.50 -395.20 -459.10 -394.00 -460.60 -392.40 C -460.20 -389.90 -460.30 -388.50 -461.00 -388.20 Z" fill="#000000" fill-rule="nonzero" node-id="300" stroke="none" target-height="9.67572" target-width="9.865448" target-x="-468.62384" target-y="-397.8227"></path></clipPath><clipPath id="SVGID_13_" node-id="51"><path d="M 300.90 -388.90 C 300.20 -388.60 299.00 -389.20 297.10 -390.80 C 294.90 -390.60 293.60 -390.80 293.30 -391.50 C 293.00 -392.20 293.70 -393.30 295.30 -394.90 C 294.90 -396.90 295.10 -398.00 295.70 -398.40 C 296.40 -398.80 297.60 -398.30 299.20 -397.00 C 301.50 -397.60 302.80 -397.50 303.10 -396.70 C 303.40 -395.90 302.80 -394.70 301.30 -393.10 C 301.70 -390.60 301.50 -389.30 300.90 -388.90 Z" fill="#000000" fill-rule="nonzero" node-id="304" stroke="none" target-height="9.67569" target-width="9.8654785" target-x="293.27615" target-y="-398.52267"></path></clipPath><clipPath id="SVGID_17_" node-id="63"><path d="M 280.30 -388.70 C 279.60 -388.40 278.40 -389.00 276.50 -390.60 C 274.30 -390.40 273.00 -390.60 272.70 -391.30 C 272.40 -392.00 273.10 -393.10 274.70 -394.70 C 274.30 -396.70 274.50 -397.80 275.10 -398.20 C 275.80 -398.60 277.00 -398.10 278.60 -396.80 C 280.90 -397.40 282.20 -397.30 282.50 -396.50 C 282.80 -395.70 282.20 -394.50 280.70 -392.90 C 281.10 -390.40 281.00 -389.10 280.30 -388.70 Z" fill="#000000" fill-rule="nonzero" node-id="308" stroke="none" target-height="9.675751" target-width="9.8654785" target-x="272.67615" target-y="-398.32275"></path></clipPath><clipPath id="SVGID_21_" node-id="75"><path d="M 257.10 -385.80 C 256.40 -385.80 255.50 -386.90 254.70 -389.10 C 252.60 -389.90 251.60 -390.70 251.70 -391.40 C 251.70 -392.10 252.80 -392.80 255.00 -393.40 C 255.50 -395.30 256.20 -396.20 256.90 -396.20 C 257.70 -396.20 258.50 -395.30 259.30 -393.40 C 261.50 -392.90 262.60 -392.20 262.50 -391.40 C 262.40 -390.60 261.30 -389.80 259.30 -389.10 C 258.50 -386.90 257.80 -385.80 257.10 -385.80 Z" fill="#000000" fill-rule="nonzero" node-id="312" stroke="none" target-height="10.400024" target-width="10.800003" target-x="251.7" target-y="-396.2"></path></clipPath><clipPath id="SVGID_25_" node-id="87"><path d="M 250.40 -376.40 C 249.80 -376.40 249.20 -377.20 248.60 -378.90 C 247.10 -379.50 246.30 -380.10 246.30 -380.60 C 246.30 -381.10 247.20 -381.70 248.80 -382.10 C 249.20 -383.50 249.70 -384.20 250.30 -384.20 C 250.90 -384.20 251.50 -383.50 252.10 -382.10 C 253.80 -381.70 254.60 -381.20 254.50 -380.60 C 254.40 -380.00 253.60 -379.40 252.10 -378.90 C 251.50 -377.20 250.90 -376.40 250.40 -376.40 Z" fill="#000000" fill-rule="nonzero" node-id="316" stroke="none" target-height="7.8000183" target-width="8.199997" target-x="246.3" target-y="-384.2"></path></clipPath><linearGradient gradientTransform="matrix(0.9959 0.089941 -0.089941 0.9959 24.4725 157.537)" gradientUnits="userSpaceOnUse" id="SVGID_29_" node-id="141" x1="259.3934" x2="289.4276" y1="113.6893" y2="113.6893"><stop offset="0" stop-color="#dbb8a1"></stop><stop offset="0.998" stop-color="#e8762a"></stop></linearGradient><linearGradient gradientTransform="matrix(-0.9959 -0.089941 0.089941 -0.9959 -1436.4238 -5119.2437)" gradientUnits="userSpaceOnUse" id="SVGID_31_" node-id="145" x1="-2367.986" x2="-2338.1135" y1="-5229.3115" y2="-5229.3115"><stop offset="0" stop-color="#dbb8a1"></stop><stop offset="0.998" stop-color="#e8762a"></stop></linearGradient><linearGradient gradientTransform="matrix(0.9959 0.089941 -0.089941 0.9959 24.4725 157.537)" gradientUnits="userSpaceOnUse" id="SVGID_33_" node-id="154" x1="348.1572" x2="348.1572" y1="116.1532" y2="94.4698"><stop offset="0" stop-color="#ee7c28"></stop><stop offset="0.131" stop-color="#ed7f2d"></stop><stop offset="0.2805" stop-color="#ec863b"></stop><stop offset="0.4392" stop-color="#ea9251"></stop><stop offset="0.6043" stop-color="#e6a371"></stop><stop offset="0.7743" stop-color="#e2b99b"></stop><stop offset="0.946" stop-color="#ddd4cc"></stop><stop offset="0.9955" stop-color="#dbdcdc"></stop></linearGradient><clipPath id="SVGID_35_" node-id="183"><path d="M 178.33 343.47 L 161.41 355.72 L 159.91 356.61 L 158.36 357.19 L 156.76 357.48 L 154.34 357.40 L 152.01 356.70 L 150.58 355.92 L 149.30 354.87 L 148.15 353.55 L 145.89 350.50 L 178.15 327.10 L 180.40 330.16 L 181.32 331.68 L 181.92 333.24 L 182.22 334.86 L 182.14 337.31 L 181.45 339.64 L 180.67 341.07 L 179.63 342.34 L 178.33 343.47 Z" fill="#000000" fill-rule="nonzero" node-id="350" stroke-linecap="butt" stroke-width="1.0000019" target-height="30.386871" target-width="36.328156" target-x="145.89171" target-y="327.09668"></path></clipPath><linearGradient gradientTransform="matrix(0.752 0.3857 -0.5307 1.0345 -307.7112 775.4536)" gradientUnits="userSpaceOnUse" id="SVGID_37_" node-id="186" x1="242.2853" x2="289.4519" y1="-527.3746" y2="-527.3746"><stop offset="0" stop-color="#d5c697"></stop><stop offset="0.3076" stop-color="#f3e1b6"></stop><stop offset="0.6479" stop-color="#dcc28e"></stop><stop offset="0.998" stop-color="#d5b059"></stop></linearGradient><linearGradient gradientTransform="matrix(0.8018 -0.5977 0.5977 0.8018 -636.4813 -1099.4757)" gradientUnits="userSpaceOnUse" id="SVGID_39_" node-id="194" x1="-149.8695" x2="-126.4796" y1="1622.4408" y2="1622.4408"><stop offset="0" stop-color="#f4bf1d"></stop><stop offset="1" stop-color="#f29718"></stop></linearGradient><linearGradient gradientTransform="matrix(-0.8775 -0.4796 0.5184 -0.9484 -3995.6555 -168.5053)" gradientUnits="userSpaceOnUse" id="SVGID_41_" node-id="198" x1="-3904.8584" x2="-3861.9646" y1="1485.7544" y2="1485.7544"><stop offset="0" stop-color="#f4bf1d"></stop><stop offset="1" stop-color="#f29718"></stop></linearGradient><clipPath id="SVGID_42_" node-id="211"><path d="M 1844.50 318.40 C 1841.60 317.60 1839.70 312.30 1838.70 302.50 C 1831.60 296.90 1828.60 292.80 1829.60 290.00 C 1830.60 287.20 1835.70 285.80 1844.80 285.80 C 1849.10 279.10 1852.70 276.20 1855.60 277.00 C 1858.50 277.80 1860.60 282.40 1861.80 290.80 C 1869.90 295.40 1873.40 299.30 1872.20 302.40 C 1871.00 305.50 1865.90 307.30 1856.90 307.80 C 1851.50 315.70 1847.40 319.30 1844.50 318.40 Z" fill="#000000" fill-rule="nonzero" node-id="376" stroke="none" target-height="41.64261" target-width="43.0166" target-x="1829.4087" target-y="276.8742"></path></clipPath><clipPath id="SVGID_44_" node-id="226"><path d="M 2601.20 329.00 C 2598.30 328.20 2596.40 322.90 2595.40 313.10 C 2588.30 307.50 2585.30 303.40 2586.30 300.60 C 2587.30 297.80 2592.40 296.40 2601.40 296.40 C 2605.70 289.70 2609.30 286.80 2612.20 287.60 C 2615.20 288.50 2617.20 293.00 2618.40 301.40 C 2626.50 306.00 2630.00 309.90 2628.80 313.00 C 2627.60 316.10 2622.50 317.90 2613.50 318.40 C 2608.20 326.30 2604.10 329.80 2601.20 329.00 Z" fill="#000000" fill-rule="nonzero" node-id="380" stroke="none" target-height="41.62564" target-width="42.916504" target-x="2586.109" target-y="287.47418"></path></clipPath><clipPath id="SVGID_46_" node-id="241"><path d="M 1869.50 -516.90 C 1866.60 -517.70 1864.70 -523.00 1863.70 -532.80 C 1856.60 -538.40 1853.60 -542.50 1854.60 -545.30 C 1855.60 -548.10 1860.70 -549.50 1869.80 -549.50 C 1874.10 -556.20 1877.70 -559.10 1880.60 -558.30 C 1883.60 -557.40 1885.60 -552.90 1886.80 -544.50 C 1894.90 -539.90 1898.40 -536.00 1897.20 -532.90 C 1896.00 -529.80 1890.90 -528.00 1881.90 -527.50 C 1876.50 -519.60 1872.40 -516.00 1869.50 -516.90 Z" fill="#000000" fill-rule="nonzero" node-id="384" stroke="none" target-height="41.64258" target-width="43.0166" target-x="1854.4087" target-y="-558.4258"></path></clipPath><clipPath id="SVGID_48_" node-id="254"><path d="M 2587.40 1155.40 C 2584.50 1154.60 2582.60 1149.30 2581.60 1139.50 C 2574.50 1133.90 2571.50 1129.80 2572.50 1127.00 C 2573.50 1124.20 2578.60 1122.80 2587.70 1122.80 C 2592.00 1116.10 2595.60 1113.20 2598.50 1114.00 C 2601.50 1114.90 2603.50 1119.40 2604.70 1127.80 C 2612.80 1132.40 2616.30 1136.30 2615.10 1139.40 C 2613.90 1142.50 2608.80 1144.30 2599.80 1144.80 C 2594.40 1152.70 2590.30 1156.30 2587.40 1155.40 Z" fill="#000000" fill-rule="nonzero" node-id="388" stroke="none" target-height="41.6427" target-width="43.0166" target-x="2572.3088" target-y="1113.8741"></path></clipPath><clipPath id="SVGID_50_" node-id="267"><path d="M 1888.40 1123.40 C 1885.50 1122.60 1883.60 1117.30 1882.60 1107.50 C 1875.50 1101.90 1872.50 1097.80 1873.50 1095.00 C 1874.50 1092.20 1879.60 1090.80 1888.70 1090.80 C 1893.00 1084.10 1896.60 1081.20 1899.50 1082.00 C 1902.50 1082.90 1904.50 1087.40 1905.70 1095.80 C 1913.80 1100.40 1917.30 1104.30 1916.10 1107.40 C 1914.90 1110.50 1909.80 1112.30 1900.80 1112.80 C 1895.40 1120.70 1891.30 1124.20 1888.40 1123.40 Z" fill="#000000" fill-rule="nonzero" node-id="392" stroke="none" target-height="41.6261" target-width="43.016724" target-x="1873.3087" target-y="1081.8741"></path></clipPath><clipPath id="SVGID_52_" node-id="280"><path d="M 1083.20 1127.40 C 1080.30 1126.60 1078.40 1121.30 1077.40 1111.50 C 1070.30 1105.90 1067.30 1101.80 1068.30 1099.00 C 1069.30 1096.20 1074.40 1094.80 1083.50 1094.80 C 1087.80 1088.10 1091.40 1085.20 1094.30 1086.00 C 1097.30 1086.90 1099.30 1091.40 1100.50 1099.80 C 1108.60 1104.40 1112.10 1108.30 1110.90 1111.40 C 1109.70 1114.50 1104.60 1116.30 1095.60 1116.80 C 1090.20 1124.70 1086.10 1128.30 1083.20 1127.40 Z" fill="#000000" fill-rule="nonzero" node-id="396" stroke="none" target-height="41.6427" target-width="43.0166" target-x="1068.1088" target-y="1085.8741"></path></clipPath></defs><g node-id="678"><g node-id="687"><path d="M -415.30 -396.90 C -416.00 -396.60 -417.20 -397.20 -419.10 -398.80 C -421.30 -398.60 -422.60 -398.80 -422.90 -399.50 C -423.20 -400.20 -422.50 -401.30 -420.90 -402.90 C -421.30 -404.90 -421.10 -406.00 -420.50 -406.40 C -419.80 -406.80 -418.60 -406.30 -417.00 -405.00 C -414.70 -405.60 -413.40 -405.50 -413.10 -404.70 C -412.80 -403.90 -413.40 -402.70 -414.90 -401.10 C -414.50 -398.60 -414.60 -397.20 -415.30 -396.90 Z" fill="#96d0c1" fill-rule="evenodd" group-id="1,10" node-id="404" stroke="none" target-height="9.675659" target-width="9.8654785" target-x="-422.92386" target-y="-406.5227"></path><g node-id="702"><g clip-path="url(#SVGID_1_)" group-id="1,10,25" node-id="406"><path d="M -653.43 -388.45 L -435.88 -501.34 L 313.33 942.43 L 95.78 1055.32 Z" fill="#96d0c1" fill-rule="nonzero" group-id="1,10,25" node-id="408" stroke-linecap="butt" stroke-width="0.999993" target-height="1556.6632" target-width="966.7627" target-x="-653.4293" target-y="-501.34036"></path></g></g><path d="M -436.70 -396.20 C -437.40 -395.90 -438.60 -396.50 -440.50 -398.10 C -442.70 -397.90 -444.00 -398.10 -444.30 -398.80 C -444.60 -399.50 -443.90 -400.60 -442.30 -402.20 C -442.70 -404.20 -442.50 -405.30 -441.90 -405.70 C -441.20 -406.10 -440.00 -405.60 -438.40 -404.30 C -436.10 -404.90 -434.80 -404.80 -434.50 -404.00 C -434.20 -403.20 -434.80 -402.00 -436.30 -400.40 C -435.90 -397.90 -436.10 -396.50 -436.70 -396.20 Z" fill="#96d0c1" fill-rule="evenodd" group-id="1,10" node-id="411" stroke="none" target-height="9.675751" target-width="9.865509" target-x="-444.32385" target-y="-405.82275"></path><g clip-path="url(#SVGID_5_)" group-id="1,10,26" node-id="413"><path d="M -674.82 -387.76 L -457.26 -500.65 L 291.95 943.12 L 74.40 1056.01 Z" fill="#96d0c1" fill-rule="nonzero" group-id="1,10,26" node-id="415" stroke-linecap="butt" stroke-width="0.999993" target-height="1556.6632" target-width="966.7627" target-x="-674.8154" target-y="-500.6515"></path></g><path d="M -461.00 -388.20 C -461.70 -387.90 -462.90 -388.50 -464.80 -390.10 C -467.00 -389.90 -468.30 -390.10 -468.60 -390.80 C -468.90 -391.50 -468.20 -392.60 -466.60 -394.20 C -467.00 -396.20 -466.80 -397.30 -466.20 -397.70 C -465.50 -398.10 -464.30 -397.60 -462.70 -396.30 C -460.40 -396.90 -459.10 -396.80 -458.80 -396.00 C -458.50 -395.20 -459.10 -394.00 -460.60 -392.40 C -460.20 -389.90 -460.30 -388.50 -461.00 -388.20 Z" fill="#96d0c1" fill-rule="evenodd" group-id="1,10" node-id="418" stroke="none" target-height="9.67572" target-width="9.865448" target-x="-468.62384" target-y="-397.8227"></path><g clip-path="url(#SVGID_9_)" group-id="1,10,27" node-id="420"><path d="M -699.11 -379.74 L -481.56 -492.63 L 267.65 951.14 L 50.10 1064.03 Z" fill="#96d0c1" fill-rule="nonzero" group-id="1,10,27" node-id="422" stroke-linecap="butt" stroke-width="0.999993" target-height="1556.6631" target-width="966.7627" target-x="-699.1093" target-y="-492.6282"></path></g></g></g><g node-id="679"><g node-id="688"><path d="M 300.90 -388.90 C 300.20 -388.60 299.00 -389.20 297.10 -390.80 C 294.90 -390.60 293.60 -390.80 293.30 -391.50 C 293.00 -392.20 293.70 -393.30 295.30 -394.90 C 294.90 -396.90 295.10 -398.00 295.70 -398.40 C 296.40 -398.80 297.60 -398.30 299.20 -397.00 C 301.50 -397.60 302.80 -397.50 303.10 -396.70 C 303.40 -395.90 302.80 -394.70 301.30 -393.10 C 301.70 -390.60 301.50 -389.30 300.90 -388.90 Z" fill="#96d0c1" fill-rule="evenodd" group-id="2,11" node-id="431" stroke="none" target-height="9.67569" target-width="9.8654785" target-x="293.27615" target-y="-398.52267"></path><g node-id="705"><g clip-path="url(#SVGID_13_)" group-id="2,11,28" node-id="433"><path d="M 62.74 -380.56 L 280.29 -493.46 L 1029.50 950.31 L 811.95 1063.21 Z" fill="#96d0c1" fill-rule="nonzero" group-id="2,11,28" node-id="435" stroke-linecap="butt" stroke-width="0.999993" target-height="1556.6632" target-width="966.7627" target-x="62.736725" target-y="-493.4565"></path></g></g><path d="M 280.30 -388.70 C 279.60 -388.40 278.40 -389.00 276.50 -390.60 C 274.30 -390.40 273.00 -390.60 272.70 -391.30 C 272.40 -392.00 273.10 -393.10 274.70 -394.70 C 274.30 -396.70 274.50 -397.80 275.10 -398.20 C 275.80 -398.60 277.00 -398.10 278.60 -396.80 C 280.90 -397.40 282.20 -397.30 282.50 -396.50 C 282.80 -395.70 282.20 -394.50 280.70 -392.90 C 281.10 -390.40 281.00 -389.10 280.30 -388.70 Z" fill="#96d0c1" fill-rule="evenodd" group-id="2,11" node-id="438" stroke="none" target-height="9.675751" target-width="9.8654785" target-x="272.67615" target-y="-398.32275"></path><g clip-path="url(#SVGID_17_)" group-id="2,11,29" node-id="440"><path d="M -262.62 -351.96 L -45.07 -464.85 L 704.14 978.92 L 486.59 1091.81 Z" fill="#96d0c1" fill-rule="nonzero" group-id="2,11,29" node-id="442" stroke-linecap="butt" stroke-width="0.999993" target-height="1556.6633" target-width="966.7627" target-x="-262.62436" target-y="-464.85394"></path></g><path d="M 257.10 -385.80 C 256.40 -385.80 255.50 -386.90 254.70 -389.10 C 252.60 -389.90 251.60 -390.70 251.70 -391.40 C 251.70 -392.10 252.80 -392.80 255.00 -393.40 C 255.50 -395.30 256.20 -396.20 256.90 -396.20 C 257.70 -396.20 258.50 -395.30 259.30 -393.40 C 261.50 -392.90 262.60 -392.20 262.50 -391.40 C 262.40 -390.60 261.30 -389.80 259.30 -389.10 C 258.50 -386.90 257.80 -385.80 257.10 -385.80 Z" fill="#96d0c1" fill-rule="evenodd" group-id="2,11" node-id="445" stroke="none" target-height="10.400024" target-width="10.800003" target-x="251.7" target-y="-396.2"></path><g clip-path="url(#SVGID_21_)" group-id="2,11,30" node-id="447"><path d="M 89.30 -470.10 L 329.10 -470.10 L 329.10 1121.80 L 89.30 1121.80 Z" fill="#96d0c1" fill-rule="nonzero" group-id="2,11,30" node-id="449" stroke="none" target-height="1591.9" target-width="239.8" target-x="89.3" target-y="-470.1"></path></g><path d="M 250.40 -376.40 C 249.80 -376.40 249.20 -377.20 248.60 -378.90 C 247.10 -379.50 246.30 -380.10 246.30 -380.60 C 246.30 -381.10 247.20 -381.70 248.80 -382.10 C 249.20 -383.50 249.70 -384.20 250.30 -384.20 C 250.90 -384.20 251.50 -383.50 252.10 -382.10 C 253.80 -381.70 254.60 -381.20 254.50 -380.60 C 254.40 -380.00 253.60 -379.40 252.10 -378.90 C 251.50 -377.20 250.90 -376.40 250.40 -376.40 Z" fill="#96d0c1" fill-rule="evenodd" group-id="2,11" node-id="452" stroke="none" target-height="7.8000183" target-width="8.199997" target-x="246.3" target-y="-384.2"></path><g clip-path="url(#SVGID_25_)" group-id="2,11,31" node-id="454"><path d="M 124.40 -439.70 L 304.50 -439.70 L 304.50 756.00 L 124.40 756.00 Z" fill="#96d0c1" fill-rule="nonzero" group-id="2,11,31" node-id="456" stroke="none" target-height="1195.7" target-width="180.1" target-x="124.4" target-y="-439.7"></path></g></g></g><g node-id="680"><g node-id="689"><path d="M 220.90 472.50 C 220.90 472.50 214.00 476.50 211.30 484.90 C 208.60 493.30 209.30 498.30 210.40 503.00 C 210.40 503.00 213.00 512.40 224.60 519.60 C 224.60 519.60 238.40 528.00 257.90 523.80 C 257.90 523.80 274.60 520.00 283.30 515.50 C 283.30 515.50 298.90 507.60 308.60 499.90 L 304.80 494.80 L 298.00 490.40 L 290.70 494.80 C 290.70 494.80 274.20 506.50 260.20 509.10 C 260.20 509.10 244.00 512.70 235.20 506.20 C 235.20 506.20 228.80 500.30 230.30 491.60 L 230.20 479.90 L 220.90 472.50 Z" fill="#f3b41c" fill-rule="nonzero" group-id="3,12" node-id="465" stroke="none" target-height="52.464905" target-width="99.17598" target-x="209.42403" target-y="472.5"></path><path d="M 222.40 480.90 C 222.40 480.90 221.40 494.50 239.00 488.20 C 239.00 488.20 249.30 483.60 246.70 471.20 C 246.70 471.20 245.30 459.70 243.50 455.10 C 243.50 455.10 242.20 452.00 242.10 449.00 C 242.10 449.00 228.30 454.80 223.00 455.10 C 223.00 455.10 213.90 455.40 209.50 465.30 C 205.00 475.30 212.60 479.00 212.60 479.00 C 212.60 479.00 213.80 480.80 222.40 480.90 Z" fill="#802d1f" fill-rule="nonzero" group-id="3,12" node-id="467" stroke="none" target-height="40.860016" target-width="39.004883" target-x="208.08594" target-y="449"></path></g><g node-id="690"><path d="M 308.30 570.60 C 308.30 570.60 309.60 577.10 304.40 579.80 C 304.40 579.80 285.50 581.00 282.70 592.50 C 282.70 592.50 277.90 609.40 293.70 609.30 L 299.10 609.40 C 299.10 609.40 318.00 609.20 324.10 605.90 C 324.10 605.90 332.80 601.10 345.60 604.10 C 345.60 604.10 357.30 603.40 357.60 594.80 C 357.60 594.80 357.80 591.50 357.50 585.80 C 357.50 585.80 353.30 577.10 353.50 572.30 L 353.10 566.60 L 308.30 570.60 Z" fill="#f3b016" fill-rule="nonzero" group-id="3,13" node-id="472" stroke="none" target-height="42.80005" target-width="75.64081" target-x="282.02167" target-y="566.6"></path><path d="M 437.00 538.30 C 437.00 538.30 437.90 545.30 443.70 546.40 C 443.70 546.40 461.80 541.70 468.30 552.40 C 468.30 552.40 478.30 567.90 463.50 572.80 L 458.50 574.60 C 458.50 574.60 440.70 580.30 433.90 578.90 C 433.90 578.90 424.20 576.80 413.10 583.80 C 413.10 583.80 401.90 586.70 398.80 578.20 C 398.80 578.20 397.50 574.90 396.00 569.10 C 396.00 569.10 397.10 559.00 395.40 554.30 L 393.90 548.50 L 437.00 538.30 Z" fill="#f3b016" fill-rule="nonzero" group-id="3,13" node-id="474" stroke="none" target-height="45.96753" target-width="77.683136" target-x="393.9" target-y="538.3"></path><path d="M 296.90 475.40 L 416.50 478.30 C 416.50 478.30 429.30 488.20 435.50 502.40 C 441.70 516.70 439.40 536.40 440.50 544.10 C 440.50 544.10 424.60 558.60 397.20 560.10 C 397.20 560.10 396.20 560.40 391.30 545.90 C 388.90 538.80 385.00 533.90 381.20 527.40 C 378.70 523.10 374.90 518.20 374.50 514.10 C 374.50 514.10 369.80 516.40 355.80 513.40 C 355.80 513.40 352.70 526.00 353.10 541.50 C 353.30 550.70 354.40 560.50 356.40 570.80 C 356.40 570.80 332.40 580.80 306.10 571.10 C 306.10 571.10 298.40 564.40 297.10 550.10 C 297.10 550.10 290.20 526.70 292.80 510.80 C 292.90 510.70 293.40 482.70 296.90 475.40 Z" fill="#5e5168" fill-rule="nonzero" group-id="3,13" node-id="476" stroke="none" target-height="99.94156" target-width="148.25119" target-x="292.2488" target-y="475.4"></path><g node-id="709"><path d="M 336.20 505.30 C 336.20 505.30 371.80 518.80 393.30 506.70 C 393.30 506.70 392.10 513.10 371.20 514.40 C 371.20 514.40 346.70 513.60 336.20 505.30 Z" fill="#2f3147" fill-opacity="0.5" fill-rule="nonzero" group-id="3,13,32" node-id="480" stroke-linecap="butt" stroke-opacity="0.5" stroke-width="1" target-height="9.100037" target-width="57.099976" target-x="336.2" target-y="505.3"></path></g><path d="M 293.00 509.70 L 293.00 504.10 C 293.00 504.10 304.10 499.80 307.90 496.20 C 311.90 492.30 317.00 475.80 317.00 475.80 L 324.10 476.10 C 324.10 476.10 321.50 486.00 318.00 493.50 C 316.20 497.30 312.50 501.60 311.20 502.70 C 301.90 510.20 293.00 509.70 293.00 509.70 Z" fill="#73637e" fill-rule="nonzero" group-id="3,13" node-id="483" stroke="none" target-height="33.900024" target-width="31.100006" target-x="293" target-y="475.8"></path><path d="M 401.40 478.00 C 401.40 478.00 409.40 497.20 430.10 492.80 C 430.10 492.80 433.10 498.00 433.40 499.80 C 433.40 499.80 424.60 503.00 413.60 499.00 C 413.60 499.00 408.30 496.70 405.60 495.00 C 401.20 492.30 395.60 485.10 390.90 477.80 L 401.40 478.00 Z" fill="#73637e" fill-rule="nonzero" group-id="3,13" node-id="485" stroke="none" target-height="23.212341" target-width="42.5" target-x="390.9" target-y="477.8"></path></g><g node-id="691"><path d="M 291.00 482.40 L 297.30 471.60 C 297.30 471.60 362.50 509.80 419.80 471.40 C 419.80 471.40 420.30 481.40 424.50 485.90 C 424.50 485.90 409.00 506.60 396.50 511.20 C 396.50 511.20 387.00 493.40 378.70 492.20 C 378.70 492.20 346.70 487.40 341.70 493.90 C 341.70 493.90 332.70 499.60 327.90 512.60 C 327.80 512.50 299.20 500.90 291.00 482.40 Z" fill="#eae7d9" fill-rule="nonzero" group-id="3,14" node-id="490" stroke="none" target-height="41.19998" target-width="133.5" target-x="291" target-y="471.4"></path><path d="M 319.20 366.20 L 290.90 477.20 C 290.90 477.20 360.60 516.50 421.90 477.50 L 406.60 367.50 L 319.20 366.20 Z" fill="#8ba5d5" fill-rule="nonzero" group-id="3,14" node-id="492" stroke="none" target-height="128.54279" target-width="131" target-x="290.9" target-y="366.2"></path><path d="M 320.40 361.10 L 292.70 469.60 C 292.70 469.60 360.80 508.00 420.70 469.90 L 405.70 362.40 L 320.40 361.10 Z" fill="#5883c3" fill-rule="nonzero" group-id="3,14" node-id="494" stroke="none" target-height="125.64307" target-width="128" target-x="292.7" target-y="361.1"></path></g><g node-id="692"><path d="M 324.80 362.40 L 403.00 364.60 C 403.00 364.60 398.90 401.10 365.50 418.40 C 365.50 418.30 332.20 410.20 324.80 362.40 Z" fill="#8ba5d5" fill-rule="nonzero" group-id="3,15" node-id="499" stroke="none" target-height="56" target-width="78.20001" target-x="324.8" target-y="362.4"></path><path d="M 329.70 362.40 L 397.60 364.30 C 397.60 364.30 394.00 396.00 365.10 411.00 C 365.00 411.00 336.10 403.90 329.70 362.40 Z" fill="#cd8010" fill-rule="nonzero" group-id="3,15" node-id="501" stroke="none" target-height="48.600006" target-width="67.899994" target-x="329.7" target-y="362.4"></path><path d="M 385.40 393.70 C 380.60 400.20 374.00 406.50 365.10 411.20 C 365.10 411.20 352.90 408.20 342.50 394.60 C 346.10 386.80 354.90 378.30 354.90 378.30 C 360.70 373.30 370.20 376.40 370.20 376.40 C 375.10 378.70 383.30 390.60 385.40 393.70 Z" fill="#d6d1c1" fill-rule="nonzero" group-id="3,15" node-id="503" stroke="none" target-height="35.725037" target-width="42.899994" target-x="342.5" target-y="375.47498"></path><path d="M 329.40 361.40 L 345.00 361.90 C 345.00 361.90 354.10 373.90 362.90 374.40 C 371.70 374.90 379.80 363.60 379.80 363.60 L 398.40 362.80 C 398.40 362.80 393.30 388.40 385.50 394.60 C 385.50 394.60 375.60 379.20 369.90 376.60 C 369.90 376.60 360.50 373.50 354.80 378.50 C 354.80 378.50 345.70 387.40 342.30 395.30 C 342.40 395.20 328.60 375.80 329.40 361.40 Z" fill="#efe9db" fill-rule="nonzero" group-id="3,15" node-id="505" stroke="none" target-height="33.899994" target-width="69" target-x="329.4" target-y="361.4"></path><path d="M 358.00 388.20 L 353.20 405.00 C 353.20 405.00 360.60 410.50 365.10 411.20 C 365.10 411.20 369.40 410.10 375.70 404.00 L 369.80 388.10 L 358.00 388.20 Z" fill="#574855" fill-rule="nonzero" group-id="3,15" node-id="507" stroke="none" target-height="23.100006" target-width="22.5" target-x="353.2" target-y="388.1"></path><path d="M 353.90 379.40 C 353.90 379.40 358.80 375.00 363.80 375.10 C 368.80 375.20 373.00 378.70 373.00 378.70 L 372.20 388.60 L 356.40 389.00 L 353.90 379.40 Z" fill="#6b5d77" fill-rule="nonzero" group-id="3,15" node-id="509" stroke="none" target-height="13.899994" target-width="19.100006" target-x="353.9" target-y="375.1"></path></g><path d="M 309.00 355.50 C 309.00 355.50 320.20 359.50 329.70 360.30 C 329.70 360.30 319.70 387.00 314.90 428.10 C 314.90 428.10 309.60 436.80 301.10 435.40 C 301.10 435.40 290.40 435.90 287.90 424.70 C 287.80 424.90 294.50 360.40 309.00 355.50 Z" fill="#e27c39" fill-rule="nonzero" group-id="3" node-id="512" stroke="none" target-height="80.03873" target-width="41.80002" target-x="287.9" target-y="355.5"></path><path d="M 418.40 364.50 C 418.40 364.50 446.20 365.50 471.90 408.50 L 448.10 428.50 L 411.60 393.20 L 418.40 364.50 Z" fill="#e6dccc" fill-rule="nonzero" group-id="3,16" node-id="516" stroke="none" target-height="64" target-width="60.299988" target-x="411.6" target-y="364.5"></path><path d="M 460.00 391.60 L 464.90 397.90 L 437.80 418.50 L 431.90 412.70 C 431.90 412.80 456.20 392.20 460.00 391.60 Z" fill="#9eabd2" fill-rule="nonzero" group-id="3,16" node-id="518" stroke="none" target-height="26.899994" target-width="33" target-x="431.9" target-y="391.6"></path><path d="M 398.40 361.80 C 398.40 361.80 414.20 361.00 420.40 358.50 C 420.40 358.50 430.90 368.80 428.40 400.00 L 402.10 401.80 C 402.10 401.80 399.90 368.80 398.40 361.80 Z" fill="#e27c39" fill-rule="nonzero" group-id="3,16" node-id="520" stroke="none" target-height="43.299988" target-width="30.362732" target-x="398.4" target-y="358.5"></path><path d="M 393.50 402.80 C 393.50 402.80 401.50 385.80 439.80 400.80 C 439.80 400.80 454.40 407.00 469.10 415.20 C 469.10 415.20 477.20 419.10 476.90 433.50 C 476.60 447.80 456.60 451.30 456.60 451.30 C 456.60 451.30 438.30 451.30 429.50 447.70 C 429.50 447.70 410.20 442.30 398.70 432.40 C 398.70 432.40 390.40 426.70 389.80 416.50 C 389.80 416.40 389.30 408.20 393.50 402.80 Z" fill="#f2c41f" fill-rule="nonzero" group-id="3,16" node-id="522" stroke="none" target-height="56.661682" target-width="87.11252" target-x="389.78748" target-y="394.6383"></path><path d="M 298.30 119.40 C 298.30 119.40 282.10 112.80 252.70 150.80 C 223.30 188.80 216.30 227.80 216.30 227.80 C 216.30 227.80 185.90 333.60 295.70 356.80 C 405.50 380.10 458.30 353.10 458.30 353.10 C 458.30 353.10 485.30 343.50 499.00 314.00 C 512.70 284.50 508.00 253.50 508.00 253.50 C 508.00 253.50 506.40 203.40 474.70 148.70 C 474.70 148.70 460.00 121.70 450.30 143.90 L 444.70 152.10 C 444.70 152.10 421.00 111.20 399.50 104.90 C 399.50 104.90 371.20 97.20 309.30 146.70 C 309.40 147.00 312.40 122.10 298.30 119.40 Z" fill="#923d23" fill-rule="nonzero" group-id="3,17" node-id="527" stroke="none" target-height="261.78864" target-width="296.3318" target-x="212.4458" target-y="104.46383"></path><path d="M 452.72 181.93 L 457.45 182.68 L 461.85 183.99 L 465.97 185.83 L 469.81 188.19 L 473.26 190.96 L 476.32 194.15 L 478.96 197.70 L 481.11 201.53 L 482.77 205.67 L 483.88 210.00 L 484.39 214.50 L 484.29 219.22 L 483.54 223.88 L 482.23 228.21 L 480.37 232.27 L 477.99 236.05 L 475.19 239.43 L 471.96 242.45 L 468.37 245.04 L 464.49 247.15 L 460.28 248.78 L 455.91 249.86 L 451.34 250.35 L 446.55 250.25 L 441.82 249.49 L 437.42 248.19 L 433.30 246.34 L 429.46 243.98 L 426.02 241.22 L 422.95 238.03 L 420.31 234.48 L 418.17 230.64 L 416.50 226.50 L 415.40 222.18 L 414.89 217.68 L 414.98 212.96 L 415.73 208.30 L 417.04 203.96 L 418.90 199.91 L 421.28 196.13 L 424.08 192.74 L 427.31 189.72 L 430.90 187.13 L 434.78 185.03 L 438.99 183.39 L 443.37 182.32 L 447.93 181.82 L 452.72 181.93 Z" fill="#f4c31c" fill-rule="nonzero" group-id="3,17" node-id="529" stroke-linecap="butt" stroke-width="0.99995303" target-height="68.52777" target-width="69.502045" target-x="414.88522" target-y="181.82263"></path><path d="M 443.78 204.53 L 447.40 205.19 L 450.67 206.40 L 453.64 208.13 L 456.27 210.35 L 458.44 212.91 L 460.18 215.86 L 461.39 219.05 L 462.00 222.43 L 462.01 226.05 L 461.35 229.62 L 460.14 232.84 L 458.38 235.76 L 456.15 238.34 L 453.55 240.48 L 450.56 242.19 L 447.33 243.36 L 443.90 243.96 L 440.22 243.97 L 436.59 243.30 L 433.32 242.10 L 430.36 240.36 L 427.72 238.14 L 425.55 235.58 L 423.81 232.64 L 422.61 229.45 L 421.99 226.07 L 421.98 222.44 L 422.64 218.87 L 423.85 215.66 L 425.61 212.73 L 427.85 210.15 L 430.44 208.02 L 433.43 206.31 L 436.66 205.13 L 440.09 204.53 L 443.78 204.53 Z" fill="#ea772d" fill-rule="nonzero" group-id="3,17" node-id="531" stroke-linecap="butt" stroke-width="0.99995303" target-height="39.43759" target-width="40.035156" target-x="421.9794" target-y="204.5278"></path><path d="M 286.93 168.00 L 291.67 168.76 L 296.07 170.06 L 300.18 171.91 L 304.03 174.26 L 307.47 177.03 L 310.54 180.22 L 313.17 183.77 L 315.32 187.60 L 316.98 191.75 L 318.09 196.07 L 318.60 200.57 L 318.50 205.29 L 317.75 209.95 L 316.44 214.29 L 314.58 218.34 L 312.20 222.12 L 309.41 225.51 L 306.17 228.53 L 302.58 231.12 L 298.70 233.22 L 294.50 234.86 L 290.12 235.93 L 285.55 236.43 L 280.76 236.32 L 276.03 235.57 L 271.63 234.26 L 267.51 232.42 L 263.67 230.06 L 260.23 227.29 L 257.16 224.10 L 254.52 220.55 L 252.38 216.72 L 250.71 212.57 L 249.61 208.25 L 249.10 203.75 L 249.19 199.03 L 249.94 194.37 L 251.25 190.04 L 253.11 185.98 L 255.49 182.20 L 258.29 178.82 L 261.52 175.79 L 265.11 173.21 L 268.99 171.10 L 273.20 169.47 L 277.58 168.39 L 282.14 167.90 L 286.93 168.00 Z" fill="#f4c31c" fill-rule="nonzero" group-id="3,17" node-id="533" stroke-linecap="butt" stroke-width="0.99995303" target-height="68.52774" target-width="69.502045" target-x="249.0965" target-y="167.89798"></path><path d="M 291.74 191.84 L 295.37 192.51 L 298.63 193.71 L 301.60 195.45 L 304.24 197.66 L 306.41 200.23 L 308.14 203.17 L 309.35 206.36 L 309.96 209.74 L 309.98 213.37 L 309.31 216.94 L 308.10 220.15 L 306.35 223.08 L 304.11 225.66 L 301.52 227.79 L 298.53 229.50 L 295.30 230.68 L 291.87 231.28 L 288.18 231.28 L 284.55 230.62 L 281.29 229.41 L 278.32 227.68 L 275.68 225.46 L 273.51 222.90 L 271.78 219.95 L 270.57 216.76 L 269.96 213.38 L 269.94 209.75 L 270.61 206.19 L 271.82 202.97 L 273.57 200.05 L 275.81 197.46 L 278.41 195.33 L 281.40 193.62 L 284.63 192.45 L 288.06 191.85 L 291.74 191.84 Z" fill="#ea772d" fill-rule="nonzero" group-id="3,17" node-id="535" stroke-linecap="butt" stroke-width="0.99995303" target-height="39.43759" target-width="40.035187" target-x="269.94324" target-y="191.84402"></path><path d="M 464.80 287.50 C 463.40 303.50 458.00 322.20 446.90 333.30 C 427.20 353.10 392.90 359.20 355.80 355.90 C 324.40 353.10 284.90 343.70 267.20 325.10 C 252.20 309.50 253.10 288.90 254.90 268.50 C 258.90 224.00 309.10 192.20 367.10 197.40 C 425.10 202.70 468.80 243.00 464.80 287.50 Z" fill="#f4cf25" fill-rule="nonzero" group-id="3,17" node-id="537" stroke="none" target-height="159.84415" target-width="211.0874" target-x="253.95313" target-y="196.90018"></path><path d="M 408.90 325.40 C 415.00 314.70 428.60 311.00 439.20 317.10 C 444.70 320.20 448.40 325.40 449.80 331.10 C 449.80 331.20 449.80 331.30 449.90 331.40 C 459.70 320.10 464.50 302.70 465.90 287.70 C 469.90 243.20 426.20 202.90 368.30 197.70 C 310.40 192.50 260.10 224.30 256.10 268.80 C 254.40 287.50 253.60 306.40 265.00 321.40 C 267.60 310.90 277.50 303.60 288.60 304.60 C 300.80 305.70 309.90 316.50 308.80 328.80 C 308.20 335.10 305.10 340.60 300.40 344.20 C 318.10 350.70 338.90 354.50 357.00 356.10 C 377.10 357.90 396.30 356.90 412.90 352.50 C 405.60 345.50 403.70 334.40 408.90 325.40 Z" fill="#f4cf25" fill-rule="nonzero" group-id="3,17" node-id="539" stroke="none" target-height="159.74062" target-width="210.97652" target-x="255.16399" target-y="197.20021"></path><path d="M 347.20 185.40 C 347.20 185.40 326.90 196.40 335.30 222.50 C 343.70 248.60 368.60 242.60 368.60 242.60 C 368.60 242.60 375.30 241.20 378.40 234.70 C 378.40 234.70 401.80 239.60 403.90 221.40 C 403.90 221.40 407.70 204.40 391.40 192.90 C 375.20 181.40 356.60 179.30 347.20 185.40 Z" fill="#9d4424" fill-rule="nonzero" group-id="3,17" node-id="541" stroke="none" target-height="61.108276" target-width="70.96735" target-x="333.312" target-y="182.08063"></path><path d="M 318.00 247.80 L 320.25 248.76 L 322.07 249.97 L 323.54 251.45 L 324.48 252.99 L 324.91 254.62 L 324.72 256.20 L 323.94 257.58 L 322.63 258.65 L 320.97 259.33 L 318.90 259.66 L 316.72 259.56 L 314.34 259.01 L 312.09 258.05 L 310.27 256.84 L 308.79 255.36 L 307.86 253.82 L 307.43 252.18 L 307.61 250.61 L 308.39 249.23 L 309.71 248.16 L 311.37 247.47 L 313.43 247.15 L 315.62 247.25 L 318.00 247.80 Z" fill="#803b20" fill-rule="nonzero" group-id="3,17" node-id="543" stroke-linecap="butt" stroke-width="1.0000253" target-height="12.506531" target-width="17.476135" target-x="307.43024" target-y="247.15039"></path><path d="M 402.86 251.17 L 402.82 252.75 L 402.16 254.31 L 401.02 255.70 L 399.35 256.96 L 397.37 257.90 L 395.01 258.53 L 392.58 258.74 L 390.40 258.52 L 388.40 257.91 L 386.85 257.00 L 385.71 255.75 L 385.13 254.28 L 385.17 252.69 L 385.82 251.13 L 386.97 249.74 L 388.64 248.49 L 390.61 247.55 L 392.97 246.91 L 395.41 246.71 L 397.59 246.92 L 399.58 247.53 L 401.13 248.45 L 402.28 249.69 L 402.86 251.17 Z" fill="#803b20" fill-rule="nonzero" group-id="3,17" node-id="545" stroke-linecap="butt" stroke-width="1.0000079" target-height="12.033432" target-width="17.730011" target-x="385.12753" target-y="246.7054"></path><path d="M 302.50 296.80 C 302.10 301.60 295.00 304.90 286.80 304.10 C 278.50 303.40 272.20 298.90 272.60 294.10 C 273.00 289.30 280.10 286.00 288.30 286.80 C 296.60 287.50 302.90 292.00 302.50 296.80 Z" fill="url(#SVGID_29_)" fill-rule="nonzero" group-id="3,17" node-id="547" stroke="none" target-height="17.52832" target-width="29.899994" target-x="272.6" target-y="286.68585"></path><path d="M 421.90 299.20 C 422.30 294.40 429.30 291.20 437.60 291.90 C 445.80 292.60 452.10 297.10 451.70 301.90 C 451.30 306.70 444.30 309.90 436.00 309.20 C 427.80 308.40 421.50 303.90 421.90 299.20 Z" fill="url(#SVGID_31_)" fill-rule="nonzero" group-id="3,17" node-id="549" stroke="none" target-height="17.36029" target-width="29.800018" target-x="421.9" target-y="291.86984"></path><path d="M 360.79 305.92 L 362.63 306.33 L 364.30 307.14 L 365.84 308.38 L 367.13 309.91 L 368.21 311.75 L 369.09 313.93 L 369.64 316.23 L 369.90 318.70 L 369.84 321.40 L 369.42 324.06 L 368.72 326.46 L 367.76 328.61 L 366.51 330.61 L 365.12 332.22 L 363.57 333.49 L 361.84 334.44 L 360.05 334.93 L 358.17 335.00 L 356.33 334.60 L 354.66 333.79 L 353.12 332.55 L 351.83 331.02 L 350.74 329.18 L 349.87 327.00 L 349.32 324.70 L 349.06 322.23 L 349.12 319.53 L 349.54 316.87 L 350.24 314.47 L 351.20 312.32 L 352.45 310.32 L 353.84 308.71 L 355.39 307.44 L 357.12 306.49 L 358.91 306.00 L 360.79 305.92 Z" fill="#c74b1b" fill-rule="nonzero" group-id="3,17" node-id="551" stroke-linecap="butt" stroke-width="0.99995303" target-height="29.080292" target-width="20.839996" target-x="349.0595" target-y="305.92444"></path><path d="M 359.10 322.30 C 355.60 322.00 352.30 324.20 350.00 327.70 C 351.50 331.90 354.50 334.90 358.10 335.20 C 361.60 335.50 364.90 333.30 367.20 329.80 C 365.80 325.60 362.80 322.60 359.10 322.30 Z" fill="#ec7018" fill-rule="nonzero" group-id="3,17" node-id="553" stroke="none" target-height="12.900024" target-width="17.200012" target-x="350" target-y="322.3"></path><path d="M 370.80 294.60 C 370.30 300.60 365.80 305.00 360.70 304.60 C 355.70 304.10 352.10 298.90 352.60 293.00 C 353.10 287.10 357.60 282.60 362.70 283.00 C 367.70 283.40 371.40 288.60 370.80 294.60 Z" fill="url(#SVGID_33_)" fill-rule="nonzero" group-id="3,17" node-id="555" stroke="none" target-height="21.600006" target-width="18.238678" target-x="352.6" target-y="283"></path><path d="M 381.90 311.40 C 381.60 315.20 377.90 319.30 373.90 319.60 C 365.80 320.30 360.10 313.80 360.10 313.80 C 360.10 313.80 352.20 318.40 346.70 317.40 C 341.50 316.40 339.20 311.80 339.50 307.60 C 340.20 300.00 350.20 294.60 361.90 295.70 C 373.60 296.70 382.50 303.80 381.90 311.40 Z" fill="#ffffff" fill-rule="nonzero" group-id="3,17" node-id="557" stroke="none" target-height="24.02353" target-width="42.399994" target-x="339.5" target-y="295.57648"></path><path d="M 370.20 297.50 C 367.70 296.50 364.90 295.90 361.90 295.60 C 358.70 295.30 355.60 295.50 352.80 296.10 C 353.60 300.60 356.70 304.10 360.80 304.40 C 364.90 304.90 368.70 301.90 370.20 297.50 Z" fill="#803b20" fill-rule="nonzero" group-id="3,17" node-id="559" stroke="none" target-height="8.932953" target-width="17.400024" target-x="352.8" target-y="295.46704"></path><path d="M 353.55 313.07 L 354.16 313.35 L 354.67 314.08 L 354.94 315.06 L 354.97 316.31 L 354.71 317.54 L 354.27 318.45 L 353.65 319.08 L 352.99 319.25 L 352.38 318.97 L 351.88 318.23 L 351.61 317.26 L 351.58 316.01 L 351.83 314.78 L 352.27 313.87 L 352.90 313.24 L 353.55 313.07 Z" fill="#ffffff" fill-rule="nonzero" group-id="3,17" node-id="561" stroke-linecap="butt" stroke-width="0.99995303" target-height="6.1745605" target-width="3.3860474" target-x="351.5798" target-y="313.0711"></path><path d="M 367.00 320.70 C 366.10 320.60 365.40 319.20 365.60 317.50 C 365.80 315.80 366.60 314.50 367.60 314.60 C 368.50 314.70 369.20 316.10 369.00 317.80 C 368.80 319.50 367.90 320.80 367.00 320.70" fill="#ffffff" fill-rule="nonzero" group-id="3,17" node-id="563" stroke="none" target-height="6.100006" target-width="3.399994" target-x="365.6" target-y="314.6"></path><path d="M 389.80 290.80 C 389.80 290.80 394.60 274.50 409.90 273.20 C 409.90 273.20 424.40 274.10 430.00 284.50 C 430.00 284.50 407.00 279.60 389.80 290.80 Z" fill="#6f2526" fill-rule="nonzero" group-id="3,17" node-id="565" stroke="none" target-height="17.599976" target-width="40.200012" target-x="389.8" target-y="273.2"></path><path d="M 390.10 290.90 L 399.80 286.20 C 405.50 283.40 412.00 282.50 418.20 283.60 L 429.40 285.60" fill="none" group-id="3,17" node-id="567" stroke="#795629" stroke-linecap="round" stroke-width="2" target-height="7.7375793" target-width="39.299988" target-x="390.1" target-y="283.1624"></path><path d="M 329.10 288.50 C 329.10 288.50 325.50 271.90 310.40 269.50 C 310.40 269.50 295.80 269.30 289.50 279.20 C 289.40 279.20 312.70 276.00 329.10 288.50 Z" fill="#6f2526" fill-rule="nonzero" group-id="3,17" node-id="569" stroke="none" target-height="19" target-width="39.600006" target-x="289.5" target-y="269.5"></path><path d="M 328.70 288.60 L 319.40 283.20 C 313.90 280.00 307.50 278.60 301.20 279.20 L 289.90 280.30" fill="none" group-id="3,17" node-id="571" stroke="#795629" stroke-linecap="round" stroke-width="2" target-height="9.533264" target-width="38.80002" target-x="289.9" target-y="279.06674"></path><path d="M 358.41 342.97 L 360.40 343.35 L 361.87 343.96 L 362.91 344.84 L 363.18 345.71 L 362.76 346.52 L 361.58 347.20 L 360.02 347.54 L 358.00 347.55 L 356.00 347.18 L 354.53 346.56 L 353.49 345.68 L 353.22 344.81 L 353.64 344.01 L 354.83 343.32 L 356.38 342.98 L 358.41 342.97 Z" fill="#ef9914" fill-rule="nonzero" group-id="3,17" node-id="573" stroke-linecap="butt" stroke-width="0.99995303" target-height="4.5811462" target-width="9.958984" target-x="353.22272" target-y="342.97202"></path><path d="M 217.10 272.90 C 217.10 272.90 251.90 352.90 301.80 361.60 C 301.80 361.60 292.10 390.30 289.30 413.30 C 289.30 413.30 245.30 400.60 217.00 374.10 C 217.00 374.10 191.50 352.80 188.20 316.80 L 217.10 272.90 Z" fill="#f3c21d" fill-rule="nonzero" group-id="3,18" node-id="578" stroke="none" target-height="140.4" target-width="113.59999" target-x="188.2" target-y="272.9"></path><path d="M 172.20 354.90 L 153.60 345.20 C 149.00 342.80 147.20 337.10 149.60 332.60 L 204.30 227.70 L 239.50 246.10 L 184.80 351.00 C 182.50 355.50 176.80 357.30 172.20 354.90 Z" fill="#47b57f" fill-rule="nonzero" group-id="3,18" node-id="580" stroke="none" target-height="128.25557" target-width="90.95186" target-x="148.54814" target-y="227.7"></path><g clip-path="url(#SVGID_35_)" group-id="3,18,33" node-id="582"><path d="M 132.38 345.29 L 147.06 316.52 L 199.53 343.28 L 184.85 372.05 Z" fill="#d5758d" fill-rule="nonzero" group-id="3,18,33" node-id="584" stroke-linecap="butt" stroke-width="1.0000019" target-height="55.536987" target-width="67.14526" target-x="132.38255" target-y="316.51544"></path></g><path d="M 186.80 347.50 L 151.30 329.30 L 157.40 317.40 L 192.90 335.60 Z" fill="url(#SVGID_37_)" fill-rule="nonzero" group-id="3,18" node-id="587" stroke="none" target-height="30.100006" target-width="41.59999" target-x="151.3" target-y="317.4"></path><path d="M 234.60 206.90 C 234.60 206.90 238.80 205.10 239.00 209.60 L 239.50 246.30 L 230.80 249.20 L 228.00 240.00 L 218.50 243.10 L 216.20 233.80 L 206.60 237.20 L 204.20 227.70 L 234.60 206.90 Z" fill="#eed7b9" fill-rule="nonzero" group-id="3,18" node-id="589" stroke="none" target-height="42.637497" target-width="35.300003" target-x="204.2" target-y="206.5625"></path><path d="M 239.00 208.90 C 239.00 208.90 238.40 205.10 234.40 206.90 L 226.60 212.30 L 239.10 219.40 L 239.00 208.90 Z" fill="#c06b40" fill-rule="nonzero" group-id="3,18" node-id="591" stroke="none" target-height="12.978577" target-width="12.5" target-x="226.6" target-y="206.42142"></path><path d="M 232.90 283.90 C 232.90 291.41 228.20 297.50 222.40 297.50 C 216.60 297.50 211.90 291.41 211.90 283.90 C 211.90 276.39 216.60 270.30 222.40 270.30 C 228.20 270.30 232.90 276.39 232.90 283.90 Z" fill="url(#SVGID_39_)" fill-rule="nonzero" group-id="3,18" node-id="593" stroke="none" target-height="27.200012" target-width="21" target-x="211.9" target-y="270.3"></path><path d="M 192.50 255.80 L 194.10 256.70 C 206.00 263.20 210.30 278.00 203.80 289.90 L 198.00 300.60 C 191.50 312.50 176.70 316.80 164.80 310.30 L 163.20 309.40 C 155.20 305.00 152.20 294.90 156.60 286.90 L 170.00 262.40 C 174.40 254.40 184.50 251.40 192.50 255.80 Z" fill="url(#SVGID_41_)" fill-rule="nonzero" group-id="3,18" node-id="595" stroke="none" target-height="59.538544" target-width="52.23857" target-x="154.57777" target-y="253.77777"></path><path d="M 268.10 340.70 C 268.10 340.70 257.60 380.00 236.40 393.00 C 236.40 393.00 257.70 409.70 288.90 412.50 C 288.90 412.50 295.70 375.20 302.40 361.30 C 302.50 361.40 281.30 354.40 268.10 340.70 Z" fill="#e6dccc" fill-rule="nonzero" group-id="3,18" node-id="597" stroke="none" target-height="71.79999" target-width="66" target-x="236.4" target-y="340.7"></path><path d="M 276.30 347.90 L 283.50 352.70 C 283.50 352.70 282.70 381.70 256.20 403.70 C 256.20 403.70 247.40 400.50 244.20 398.00 C 244.10 398.00 265.80 389.90 276.30 347.90 Z" fill="#9aa9d1" fill-rule="nonzero" group-id="3,18" node-id="599" stroke="none" target-height="55.80002" target-width="39.300003" target-x="244.2" target-y="347.9"></path></g><g node-id="681"><g node-id="696"><path d="M 1844.50 318.40 C 1841.60 317.60 1839.70 312.30 1838.70 302.50 C 1831.60 296.90 1828.60 292.80 1829.60 290.00 C 1830.60 287.20 1835.70 285.80 1844.80 285.80 C 1849.10 279.10 1852.70 276.20 1855.60 277.00 C 1858.50 277.80 1860.60 282.40 1861.80 290.80 C 1869.90 295.40 1873.40 299.30 1872.20 302.40 C 1871.00 305.50 1865.90 307.30 1856.90 307.80 C 1851.50 315.70 1847.40 319.30 1844.50 318.40 Z" fill="#f2d435" fill-rule="evenodd" group-id="4,19" node-id="607" stroke="none" target-height="41.64261" target-width="43.0166" target-x="1829.4087" target-y="276.8742"></path><g node-id="711"><g clip-path="url(#SVGID_42_)" group-id="4,19,34" node-id="609"><path d="M -689.50 5921.81 L 1133.79 -314.77 L 2073.34 -40.09 L 250.05 6196.49 Z" fill="#f2d435" fill-rule="nonzero" group-id="4,19,34" node-id="611" stroke-linecap="butt" stroke-width="0.9999762" target-height="6511.2676" target-width="2762.831" target-x="-689.4951" target-y="-314.77344"></path></g></g></g></g><g node-id="682"><g node-id="697"><path d="M 2601.20 329.00 C 2598.30 328.20 2596.40 322.90 2595.40 313.10 C 2588.30 307.50 2585.30 303.40 2586.30 300.60 C 2587.30 297.80 2592.40 296.40 2601.40 296.40 C 2605.70 289.70 2609.30 286.80 2612.20 287.60 C 2615.20 288.50 2617.20 293.00 2618.40 301.40 C 2626.50 306.00 2630.00 309.90 2628.80 313.00 C 2627.60 316.10 2622.50 317.90 2613.50 318.40 C 2608.20 326.30 2604.10 329.80 2601.20 329.00 Z" fill="#f2d435" fill-rule="evenodd" group-id="5,20" node-id="620" stroke="none" target-height="41.62564" target-width="42.916504" target-x="2586.109" target-y="287.47418"></path><g node-id="712"><g clip-path="url(#SVGID_44_)" group-id="5,20,35" node-id="622"><path d="M 67.19 5932.29 L 1890.47 -304.30 L 2830.02 -29.62 L 1006.74 6206.97 Z" fill="#f2d435" fill-rule="nonzero" group-id="5,20,35" node-id="624" stroke-linecap="butt" stroke-width="0.9999762" target-height="6511.2686" target-width="2762.831" target-x="67.19043" target-y="-304.2976"></path></g></g></g></g><g node-id="683"><g node-id="698"><path d="M 1869.50 -516.90 C 1866.60 -517.70 1864.70 -523.00 1863.70 -532.80 C 1856.60 -538.40 1853.60 -542.50 1854.60 -545.30 C 1855.60 -548.10 1860.70 -549.50 1869.80 -549.50 C 1874.10 -556.20 1877.70 -559.10 1880.60 -558.30 C 1883.60 -557.40 1885.60 -552.90 1886.80 -544.50 C 1894.90 -539.90 1898.40 -536.00 1897.20 -532.90 C 1896.00 -529.80 1890.90 -528.00 1881.90 -527.50 C 1876.50 -519.60 1872.40 -516.00 1869.50 -516.90 Z" fill="#f2d435" fill-rule="evenodd" group-id="6,21" node-id="633" stroke="none" target-height="41.64258" target-width="43.0166" target-x="1854.4087" target-y="-558.4258"></path><g node-id="713"><g clip-path="url(#SVGID_46_)" group-id="6,21,36" node-id="635"><path d="M -664.48 5086.55 L 1158.80 -1150.04 L 2098.35 -875.36 L 275.07 5361.23 Z" fill="#f2d435" fill-rule="nonzero" group-id="6,21,36" node-id="637" stroke-linecap="butt" stroke-width="0.9999762" target-height="6511.2676" target-width="2762.8308" target-x="-664.4808" target-y="-1150.04"></path></g></g></g></g><g node-id="684"><g node-id="699"><path d="M 2587.40 1155.40 C 2584.50 1154.60 2582.60 1149.30 2581.60 1139.50 C 2574.50 1133.90 2571.50 1129.80 2572.50 1127.00 C 2573.50 1124.20 2578.60 1122.80 2587.70 1122.80 C 2592.00 1116.10 2595.60 1113.20 2598.50 1114.00 C 2601.50 1114.90 2603.50 1119.40 2604.70 1127.80 C 2612.80 1132.40 2616.30 1136.30 2615.10 1139.40 C 2613.90 1142.50 2608.80 1144.30 2599.80 1144.80 C 2594.40 1152.70 2590.30 1156.30 2587.40 1155.40 Z" fill="#f2d435" fill-rule="evenodd" group-id="7,22" node-id="646" stroke="none" target-height="41.6427" target-width="43.0166" target-x="2572.3088" target-y="1113.8741"></path><g node-id="714"><g clip-path="url(#SVGID_48_)" group-id="7,22,37" node-id="648"><path d="M 53.37 6758.84 L 1876.65 522.25 L 2816.20 796.93 L 992.92 7033.52 Z" fill="#f2d435" fill-rule="nonzero" group-id="7,22,37" node-id="650" stroke-linecap="butt" stroke-width="0.9999762" target-height="6511.2676" target-width="2762.831" target-x="53.3667" target-y="522.2532"></path></g></g></g></g><g node-id="685"><g node-id="700"><path d="M 1888.40 1123.40 C 1885.50 1122.60 1883.60 1117.30 1882.60 1107.50 C 1875.50 1101.90 1872.50 1097.80 1873.50 1095.00 C 1874.50 1092.20 1879.60 1090.80 1888.70 1090.80 C 1893.00 1084.10 1896.60 1081.20 1899.50 1082.00 C 1902.50 1082.90 1904.50 1087.40 1905.70 1095.80 C 1913.80 1100.40 1917.30 1104.30 1916.10 1107.40 C 1914.90 1110.50 1909.80 1112.30 1900.80 1112.80 C 1895.40 1120.70 1891.30 1124.20 1888.40 1123.40 Z" fill="#f2d435" fill-rule="evenodd" group-id="8,23" node-id="659" stroke="none" target-height="41.6261" target-width="43.016724" target-x="1873.3087" target-y="1081.8741"></path><g node-id="715"><g clip-path="url(#SVGID_50_)" group-id="8,23,38" node-id="661"><path d="M -645.58 6726.78 L 1177.70 490.19 L 2117.25 764.87 L 293.96 7001.46 Z" fill="#f2d435" fill-rule="nonzero" group-id="8,23,38" node-id="663" stroke-linecap="butt" stroke-width="0.9999762" target-height="6511.2676" target-width="2762.831" target-x="-645.584" target-y="490.18872"></path></g></g></g></g><g node-id="686"><g node-id="701"><path d="M 1083.20 1127.40 C 1080.30 1126.60 1078.40 1121.30 1077.40 1111.50 C 1070.30 1105.90 1067.30 1101.80 1068.30 1099.00 C 1069.30 1096.20 1074.40 1094.80 1083.50 1094.80 C 1087.80 1088.10 1091.40 1085.20 1094.30 1086.00 C 1097.30 1086.90 1099.30 1091.40 1100.50 1099.80 C 1108.60 1104.40 1112.10 1108.30 1110.90 1111.40 C 1109.70 1114.50 1104.60 1116.30 1095.60 1116.80 C 1090.20 1124.70 1086.10 1128.30 1083.20 1127.40 Z" fill="#f2d435" fill-rule="evenodd" group-id="9,24" node-id="672" stroke="none" target-height="41.6427" target-width="43.0166" target-x="1068.1088" target-y="1085.8741"></path><g node-id="716"><g clip-path="url(#SVGID_52_)" group-id="9,24,39" node-id="674"><path d="M -1450.80 6730.76 L 372.48 494.17 L 1312.03 768.85 L -511.25 7005.44 Z" fill="#f2d435" fill-rule="nonzero" group-id="9,24,39" node-id="676" stroke-linecap="butt" stroke-width="0.9999762" target-height="6511.2686" target-width="2762.8308" target-x="-1450.8005" target-y="494.17017"></path></g></g></g></g></svg>