<?xml version="1.0" standalone="no"?><!DOCTYPE svg PUBLIC "-//W3C//DTD SVG 1.1//EN" "http://www.w3.org/Graphics/SVG/1.1/DTD/svg11.dtd"><svg t="1711357439244" class="icon" viewBox="0 0 1102 1024" version="1.1" xmlns="http://www.w3.org/2000/svg" p-id="7367" xmlns:xlink="http://www.w3.org/1999/xlink" width="215.234375" height="200"><path d="M150.719941 0c23.630606 0 43.637852 8.034406 60.100507 24.103218 16.541424 16.068812 24.733367 35.918521 24.733368 59.627895v64.747859c0 23.630606-8.270712 43.795389-24.733368 60.258044-16.462655 16.541424-36.469901 24.733367-60.100507 24.733368H83.530253a80.344059 80.344059 0 0 1-58.918977-24.733368A82.155739 82.155739 0 0 1 0.035446 148.478972v-64.747859C0.035446 60.100507 8.227389 40.17203 24.690045 24.103218 41.231469 8.034406 60.844871 0 83.609021 0h67.11092z m868.503526 0c22.842919 0 42.456321 8.034406 58.918977 24.103218 16.462655 16.068812 24.654599 35.918521 24.654598 59.627895v64.747859c0 23.630606-8.191943 43.795389-24.654598 60.258044a80.344059 80.344059 0 0 1-58.918977 24.733368H478.633979c-23.630606 0-43.71662-8.270712-60.179276-24.733368A82.155739 82.155739 0 0 1 393.878873 148.478972v-64.747859c0-23.630606 8.191943-43.559083 24.654599-59.627895 16.541424-16.068812 36.54867-24.103218 60.179276-24.103218h540.589488zM150.719941 394.631114c23.630606 0 43.637852 8.270712 60.100507 24.733367 16.541424 16.541424 24.733367 36.627439 24.733368 60.258045v64.747859c0 22.842919-8.270712 42.53509-24.733368 58.997746-16.462655 16.541424-36.469901 24.733367-60.100507 24.733367H83.530253a80.344059 80.344059 0 0 1-58.918977-24.733367A80.659134 80.659134 0 0 1 0.035446 544.291616v-64.590322c0-23.709374 8.191943-43.874158 24.654599-60.336813a80.344059 80.344059 0 0 1 58.918976-24.733367h67.11092z m868.503526 0c22.842919 0 42.456321 8.270712 58.918977 24.733367 16.462655 16.541424 24.654599 36.627439 24.654598 60.258045v64.747859c0 22.842919-8.191943 42.53509-24.654598 58.997746a80.344059 80.344059 0 0 1-58.918977 24.733367H478.633979c-23.630606 0-43.71662-8.270712-60.179276-24.733367A80.659134 80.659134 0 0 1 393.878873 544.291616v-64.590322c0-23.709374 8.191943-43.874158 24.654599-60.336813 16.541424-16.541424 36.54867-24.733367 60.179276-24.733367h540.589488zM150.719941 790.522527c23.630606 0 43.637852 8.270712 60.100507 24.733367 16.541424 16.541424 24.733367 36.233595 24.733368 59.076514v64.590323c0 23.709374-8.270712 43.795389-24.733368 60.336813-16.462655 16.541424-36.469901 24.733367-60.100507 24.733367H83.530253a80.344059 80.344059 0 0 1-58.918977-24.733367A82.155739 82.155739 0 0 1 0.035446 938.922731v-64.74786c0-22.842919 8.191943-42.53509 24.654599-58.997745a80.344059 80.344059 0 0 1 58.918976-24.733368h67.11092z m868.503526 0c22.842919 0 42.456321 8.270712 58.918977 24.733367 16.462655 16.541424 24.654599 36.233595 24.654598 59.076514v64.590323c0 23.709374-8.191943 43.795389-24.654598 60.336813a80.344059 80.344059 0 0 1-58.918977 24.733367H478.633979c-23.630606 0-43.71662-8.270712-60.179276-24.733367A82.155739 82.155739 0 0 1 393.878873 938.922731v-64.74786c0-22.842919 8.191943-42.53509 24.654599-58.997745 16.541424-16.541424 36.54867-24.733367 60.179276-24.733368h540.589488z" fill="#007DFF" p-id="7368"></path></svg>